# xmcd
#
# Track frame offsets: 
#        150
#        13788
#        25952
#        38563
#        54713
#        66037
#        81326
#        93844
#        107137
#        127850
#
# Disc length: 1883 seconds
#
# Revision: 1
# Processed by: cddbd v1.5.2PL0 Copyright (c) Steve Scherf et al.
# Submitted via: ExactAudioCopyFreeDBPlugin 1.0
#
DISCID=7807590a
DTITLE=Osmond Brothers - Greatest Country Hits
DYEAR=2003
DGENRE=Country
TTITLE0=I Think About Your Lovin'
TTITLE1=She's Ready For Someone To Love Her
TTITLE2=Where Does An Angel Go When She Cries
TTITLE3=If Every Man Had A Woman Like You
TTITLE4=Anytime
TTITLE5=Baby When Your Heart Breaks Down
TTITLE6=Baby Wants
TTITLE7=You Look Like The One I Love
TTITLE8=Looking For Suzanne
TTITLE9=It's Like Falling In Love (Over And Over)
EXTD=
EXTT0=
EXTT1=
EXTT2=
EXTT3=
EXTT4=
EXTT5=
EXTT6=
EXTT7=
EXTT8=
EXTT9=
PLAYORDER=
